{
  "asset": {
    "version": "2.0",
    "generator": "THREE.GLTFExporter"
  },
  "scenes": [
    {
      "name": "Scene",
      "nodes": [
        4
      ]
    }
  ],
  "scene": 0,
  "nodes": [
    {
      "name": "DoorHandle",
      "extras": {
        "attributes": {
          "mode": {
            "name": "ObjectMode_Normal",
            "value": 0
          },
          "isInstanceDefinitionObject": false,
          "visible": true,
          "name": "DoorHandle",
          "castsShadows": true,
          "receivesShadows": true,
          "linetypeSource": {
            "name": "ObjectLinetypeSource_LinetypeFromLayer",
            "value": 0
          },
          "colorSource": {
            "name": "ObjectColorSource_ColorFromLayer",
            "value": 0
          },
          "plotColorSource": {
            "name": "ObjectPlotColorSource_PlotColorFromLayer",
            "value": 0
          },
          "plotWeightSource": {
            "name": "ObjectPlotWeightSource_PlotWeightFromLayer",
            "value": 0
          },
          "id": "0893b4f9-1971-4cab-9dde-f8e15d7cb53b",
          "url": "",
          "layerIndex": 0,
          "materialIndex": 2,
          "materialSource": {
            "name": "ObjectMaterialSource_MaterialFromObject",
            "value": 1
          },
          "objectColor": {
            "r": 0,
            "g": 0,
            "b": 0,
            "a": 255
          },
          "plotColor": {
            "r": 0,
            "g": 0,
            "b": 0,
            "a": 255
          },
          "displayOrder": 0,
          "plotWeight": 0,
          "objectDecoration": {
            "name": "ObjectDecoration_None",
            "value": 0
          },
          "wireDensity": 1,
          "viewportId": "00000000-0000-0000-0000-000000000000",
          "activeSpace": {
            "name": "ActiveSpace_ModelSpace",
            "value": 1
          },
          "groupCount": 0,
          "isValid": true,
          "userStringCount": 0,
          "geometry": {
            "isClosed": false,
            "hasCachedTextureCoordinates": false,
            "hasPrincipalCurvatures": false,
            "partitionCount": 0,
            "objectType": {
              "name": "ObjectType_Mesh",
              "value": 32
            },
            "isDeformable": true,
            "hasBrepForm": false,
            "isValid": true,
            "userStringCount": 0
          },
          "drawColor": {
            "r": 0,
            "g": 0,
            "b": 0,
            "a": 255
          }
        },
        "objectType": "Mesh"
      },
      "mesh": 0
    },
    {
      "name": "Door",
      "extras": {
        "attributes": {
          "mode": {
            "name": "ObjectMode_Normal",
            "value": 0
          },
          "isInstanceDefinitionObject": false,
          "visible": true,
          "name": "Door",
          "castsShadows": true,
          "receivesShadows": true,
          "linetypeSource": {
            "name": "ObjectLinetypeSource_LinetypeFromLayer",
            "value": 0
          },
          "colorSource": {
            "name": "ObjectColorSource_ColorFromLayer",
            "value": 0
          },
          "plotColorSource": {
            "name": "ObjectPlotColorSource_PlotColorFromLayer",
            "value": 0
          },
          "plotWeightSource": {
            "name": "ObjectPlotWeightSource_PlotWeightFromLayer",
            "value": 0
          },
          "id": "9f01b53e-2b38-423d-82fa-66938a1c8698",
          "url": "",
          "layerIndex": 0,
          "materialIndex": 1,
          "materialSource": {
            "name": "ObjectMaterialSource_MaterialFromObject",
            "value": 1
          },
          "objectColor": {
            "r": 0,
            "g": 0,
            "b": 0,
            "a": 255
          },
          "plotColor": {
            "r": 0,
            "g": 0,
            "b": 0,
            "a": 255
          },
          "displayOrder": 0,
          "plotWeight": 0,
          "objectDecoration": {
            "name": "ObjectDecoration_None",
            "value": 0
          },
          "wireDensity": 1,
          "viewportId": "00000000-0000-0000-0000-000000000000",
          "activeSpace": {
            "name": "ActiveSpace_ModelSpace",
            "value": 1
          },
          "groupCount": 0,
          "isValid": true,
          "userStringCount": 0,
          "geometry": {
            "isSolid": true,
            "isManifold": true,
            "isSurface": false,
            "objectType": {
              "name": "ObjectType_Brep",
              "value": 16
            },
            "isDeformable": false,
            "hasBrepForm": true,
            "isValid": true,
            "userStringCount": 0
          },
          "drawColor": {
            "r": 0,
            "g": 0,
            "b": 0,
            "a": 255
          }
        },
        "objectType": "Brep"
      },
      "mesh": 1
    },
    {
      "name": "DoorFrame",
      "extras": {
        "attributes": {
          "mode": {
            "name": "ObjectMode_Normal",
            "value": 0
          },
          "isInstanceDefinitionObject": false,
          "visible": true,
          "name": "DoorFrame",
          "castsShadows": true,
          "receivesShadows": true,
          "linetypeSource": {
            "name": "ObjectLinetypeSource_LinetypeFromLayer",
            "value": 0
          },
          "colorSource": {
            "name": "ObjectColorSource_ColorFromLayer",
            "value": 0
          },
          "plotColorSource": {
            "name": "ObjectPlotColorSource_PlotColorFromLayer",
            "value": 0
          },
          "plotWeightSource": {
            "name": "ObjectPlotWeightSource_PlotWeightFromLayer",
            "value": 0
          },
          "id": "0662a63e-a401-4dfa-ba6e-0f0ebb00faa4",
          "url": "",
          "layerIndex": 0,
          "materialIndex": 0,
          "materialSource": {
            "name": "ObjectMaterialSource_MaterialFromObject",
            "value": 1
          },
          "objectColor": {
            "r": 0,
            "g": 0,
            "b": 0,
            "a": 255
          },
          "plotColor": {
            "r": 0,
            "g": 0,
            "b": 0,
            "a": 255
          },
          "displayOrder": 0,
          "plotWeight": 0,
          "objectDecoration": {
            "name": "ObjectDecoration_None",
            "value": 0
          },
          "wireDensity": 1,
          "viewportId": "00000000-0000-0000-0000-000000000000",
          "activeSpace": {
            "name": "ActiveSpace_ModelSpace",
            "value": 1
          },
          "groupCount": 0,
          "isValid": true,
          "userStringCount": 0,
          "geometry": {
            "isClosed": false,
            "hasCachedTextureCoordinates": false,
            "hasPrincipalCurvatures": false,
            "partitionCount": 0,
            "objectType": {
              "name": "ObjectType_Mesh",
              "value": 32
            },
            "isDeformable": true,
            "hasBrepForm": false,
            "isValid": true,
            "userStringCount": 0
          },
          "drawColor": {
            "r": 0,
            "g": 0,
            "b": 0,
            "a": 255
          }
        },
        "objectType": "Mesh"
      },
      "mesh": 2
    },
    {
      "name": "SIP",
      "extras": {
        "attributes": {
          "mode": {
            "name": "ObjectMode_Normal",
            "value": 0
          },
          "isInstanceDefinitionObject": false,
          "visible": true,
          "name": "SIP",
          "castsShadows": true,
          "receivesShadows": true,
          "linetypeSource": {
            "name": "ObjectLinetypeSource_LinetypeFromLayer",
            "value": 0
          },
          "colorSource": {
            "name": "ObjectColorSource_ColorFromLayer",
            "value": 0
          },
          "plotColorSource": {
            "name": "ObjectPlotColorSource_PlotColorFromLayer",
            "value": 0
          },
          "plotWeightSource": {
            "name": "ObjectPlotWeightSource_PlotWeightFromLayer",
            "value": 0
          },
          "id": "f7e88ecc-8184-4e4c-9499-cba4c04db4cf",
          "url": "",
          "layerIndex": 1,
          "materialIndex": 3,
          "materialSource": {
            "name": "ObjectMaterialSource_MaterialFromObject",
            "value": 1
          },
          "objectColor": {
            "r": 0,
            "g": 0,
            "b": 0,
            "a": 255
          },
          "plotColor": {
            "r": 0,
            "g": 0,
            "b": 0,
            "a": 255
          },
          "displayOrder": 0,
          "plotWeight": 0,
          "objectDecoration": {
            "name": "ObjectDecoration_None",
            "value": 0
          },
          "wireDensity": 1,
          "viewportId": "00000000-0000-0000-0000-000000000000",
          "activeSpace": {
            "name": "ActiveSpace_ModelSpace",
            "value": 1
          },
          "groupCount": 0,
          "isValid": true,
          "userStringCount": 0,
          "geometry": {
            "isSolid": true,
            "isManifold": true,
            "isSurface": false,
            "objectType": {
              "name": "ObjectType_Brep",
              "value": 16
            },
            "isDeformable": false,
            "hasBrepForm": true,
            "isValid": true,
            "userStringCount": 0
          },
          "drawColor": {
            "r": 0,
            "g": 0,
            "b": 0,
            "a": 255
          }
        },
        "objectType": "Brep"
      },
      "mesh": 3
    },
    {
      "name": "Door01",
      "extras": {
        "layers": [
          {
            "name": "Door01",
            "fullPath": "Door01",
            "id": "1f765b34-25f8-44ab-b90d-f7764236767c",
            "parentLayerId": "00000000-0000-0000-0000-000000000000",
            "igesLevel": -1,
            "color": {
              "r": 0,
              "g": 0,
              "b": 0,
              "a": 255
            },
            "plotColor": {
              "r": 0,
              "g": 0,
              "b": 0,
              "a": 255
            },
            "plotWeight": 0,
            "linetypeIndex": -1,
            "renderMaterialIndex": -1,
            "visible": true,
            "locked": false,
            "expanded": true,
            "isValid": true,
            "userStringCount": 0
          },
          {
            "name": "SIP",
            "fullPath": "SIP",
            "id": "cbbf6803-d9ac-43b7-ba80-c7c24a25c76b",
            "parentLayerId": "00000000-0000-0000-0000-000000000000",
            "igesLevel": -1,
            "color": {
              "r": 0,
              "g": 0,
              "b": 0,
              "a": 255
            },
            "plotColor": {
              "r": 0,
              "g": 0,
              "b": 0,
              "a": 255
            },
            "plotWeight": 0,
            "linetypeIndex": -1,
            "renderMaterialIndex": -1,
            "visible": true,
            "locked": false,
            "expanded": true,
            "isValid": true,
            "userStringCount": 0
          },
          {
            "name": "toDelete",
            "fullPath": "toDelete",
            "id": "4133bbf8-a1bc-4636-b0af-2970edc2ef9c",
            "parentLayerId": "00000000-0000-0000-0000-000000000000",
            "igesLevel": -1,
            "color": {
              "r": 255,
              "g": 0,
              "b": 0,
              "a": 255
            },
            "plotColor": {
              "r": 255,
              "g": 0,
              "b": 0,
              "a": 255
            },
            "plotWeight": 0,
            "linetypeIndex": -1,
            "renderMaterialIndex": -1,
            "visible": true,
            "locked": false,
            "expanded": true,
            "isValid": true,
            "userStringCount": 0
          }
        ],
        "groups": [],
        "settings": {
          "modelUrl": "",
          "modelBasePoint": [
            0,
            0,
            0
          ],
          "earthAnchorPoint": {},
          "modelAbsoluteTolerance": 0.001,
          "modelAngleToleranceRadians": 0.017453292519943295,
          "modelAngleToleranceDegrees": 1,
          "modelRelativeTolerance": 0.01,
          "pageAbsoluteTolerance": 0.001,
          "pageAngleToleranceRadians": 0.017453292519943295,
          "pageAngleToleranceDegrees": 1,
          "pageRelativeTolerance": 0.01,
          "modelUnitSystem": {
            "name": "UnitSystem_Meters",
            "value": 4
          },
          "pageUnitSystem": {
            "name": "UnitSystem_Millimeters",
            "value": 2
          }
        },
        "objectType": "File3dm",
        "materials": [
          {
            "metadata": {
              "version": 4.5,
              "type": "Material",
              "generator": "Material.toJSON"
            },
            "uuid": "658532D1-4495-4F9C-89E7-E6A99602547E",
            "type": "MeshStandardMaterial",
            "name": "brass",
            "color": 9670332,
            "roughness": 1,
            "metalness": 0,
            "emissive": 0,
            "envMapIntensity": 1,
            "refractionRatio": 0.98,
            "side": 2,
            "depthFunc": 3,
            "depthTest": true,
            "depthWrite": true,
            "colorWrite": true,
            "stencilWrite": false,
            "stencilWriteMask": 255,
            "stencilFunc": 519,
            "stencilRef": 0,
            "stencilFuncMask": 255,
            "stencilFail": 7680,
            "stencilZFail": 7680,
            "stencilZPass": 7680
          },
          {
            "metadata": {
              "version": 4.5,
              "type": "Material",
              "generator": "Material.toJSON"
            },
            "uuid": "B8B9A393-8689-412A-AAA5-E64C41C05546",
            "type": "MeshStandardMaterial",
            "name": "plywood",
            "color": 16448250,
            "roughness": 1,
            "metalness": 0,
            "emissive": 0,
            "envMapIntensity": 1,
            "refractionRatio": 0.98,
            "side": 2,
            "depthFunc": 3,
            "depthTest": true,
            "depthWrite": true,
            "colorWrite": true,
            "stencilWrite": false,
            "stencilWriteMask": 255,
            "stencilFunc": 519,
            "stencilRef": 0,
            "stencilFuncMask": 255,
            "stencilFail": 7680,
            "stencilZFail": 7680,
            "stencilZPass": 7680
          },
          {
            "metadata": {
              "version": 4.5,
              "type": "Material",
              "generator": "Material.toJSON"
            },
            "uuid": "164A5770-9FA9-46B3-B740-419F9B4D20E2",
            "type": "MeshStandardMaterial",
            "name": "clt",
            "color": 13421772,
            "roughness": 1,
            "metalness": 0,
            "emissive": 0,
            "envMapIntensity": 1,
            "refractionRatio": 0.98,
            "side": 2,
            "depthFunc": 3,
            "depthTest": true,
            "depthWrite": true,
            "colorWrite": true,
            "stencilWrite": false,
            "stencilWriteMask": 255,
            "stencilFunc": 519,
            "stencilRef": 0,
            "stencilFuncMask": 255,
            "stencilFail": 7680,
            "stencilZFail": 7680,
            "stencilZPass": 7680
          },
          {
            "metadata": {
              "version": 4.5,
              "type": "Material",
              "generator": "Material.toJSON"
            },
            "uuid": "D3D41054-56F5-4CAC-B50A-4383AFFA2A77",
            "type": "MeshStandardMaterial",
            "name": "obs",
            "color": 14996405,
            "roughness": 1,
            "metalness": 0,
            "emissive": 0,
            "envMapIntensity": 1,
            "refractionRatio": 0.98,
            "side": 2,
            "depthFunc": 3,
            "depthTest": true,
            "depthWrite": true,
            "colorWrite": true,
            "stencilWrite": false,
            "stencilWriteMask": 255,
            "stencilFunc": 519,
            "stencilRef": 0,
            "stencilFuncMask": 255,
            "stencilFail": 7680,
            "stencilZFail": 7680,
            "stencilZPass": 7680
          }
        ],
        "warnings": []
      },
      "children": [
        0,
        1,
        2,
        3
      ]
    }
  ],
  "bufferViews": [
    {
      "buffer": 0,
      "byteOffset": 0,
      "byteLength": 54192,
      "target": 34962,
      "byteStride": 12
    },
    {
      "buffer": 0,
      "byteOffset": 54192,
      "byteLength": 54192,
      "target": 34962,
      "byteStride": 12
    },
    {
      "buffer": 0,
      "byteOffset": 108384,
      "byteLength": 52992,
      "target": 34963
    },
    {
      "buffer": 0,
      "byteOffset": 161376,
      "byteLength": 2784,
      "target": 34962,
      "byteStride": 12
    },
    {
      "buffer": 0,
      "byteOffset": 164160,
      "byteLength": 2784,
      "target": 34962,
      "byteStride": 12
    },
    {
      "buffer": 0,
      "byteOffset": 166944,
      "byteLength": 1856,
      "target": 34962,
      "byteStride": 8
    },
    {
      "buffer": 0,
      "byteOffset": 168800,
      "byteLength": 840,
      "target": 34963
    },
    {
      "buffer": 0,
      "byteOffset": 169640,
      "byteLength": 1080,
      "target": 34962,
      "byteStride": 12
    },
    {
      "buffer": 0,
      "byteOffset": 170720,
      "byteLength": 1080,
      "target": 34962,
      "byteStride": 12
    },
    {
      "buffer": 0,
      "byteOffset": 171800,
      "byteLength": 284,
      "target": 34963
    },
    {
      "buffer": 0,
      "byteOffset": 172084,
      "byteLength": 576,
      "target": 34962,
      "byteStride": 12
    },
    {
      "buffer": 0,
      "byteOffset": 172660,
      "byteLength": 576,
      "target": 34962,
      "byteStride": 12
    },
    {
      "buffer": 0,
      "byteOffset": 173236,
      "byteLength": 384,
      "target": 34962,
      "byteStride": 8
    },
    {
      "buffer": 0,
      "byteOffset": 173620,
      "byteLength": 192,
      "target": 34963
    }
  ],
  "buffers": [
    {
      "byteLength": 173812,
      "uri": "data:application/octet-stream;base64,"
    }
  ],
  "accessors": [
    {
      "bufferView": 0,
      "componentType": 5126,
      "count": 4516,
      "max": [
        -0.1924910694360733,
        0.056070566177368164,
        0.0007736347615718842
      ],
      "min": [
        -0.3460176885128021,
        -0.10508416593074799,
        -0.08081140369176865
      ],
      "type": "VEC3"
    },
    {
      "bufferView": 1,
      "componentType": 5126,
      "count": 4516,
      "max": [
        0.9999904632568359,
        0.9999876022338867,
        0.9999845623970032
      ],
      "min": [
        -0.9999862909317017,
        -0.9999877214431763,
        -0.9999866485595703
      ],
      "type": "VEC3"
    },
    {
      "bufferView": 2,
      "componentType": 5123,
      "count": 26496,
      "max": [
        4515
      ],
      "min": [
        0
      ],
      "type": "SCALAR"
    },
    {
      "bufferView": 3,
      "componentType": 5126,
      "count": 232,
      "max": [
        0.3604889214038849,
        0.0000016976348433672683,
        0.8699988126754761
      ],
      "min": [
        -0.3644888699054718,
        -0.039998628199100494,
        -1.0400011539459229
      ],
      "type": "VEC3"
    },
    {
      "bufferView": 4,
      "componentType": 5126,
      "count": 232,
      "max": [
        1,
        1,
        1
      ],
      "min": [
        -1,
        -1,
        -1
      ],
      "type": "VEC3"
    },
    {
      "bufferView": 5,
      "componentType": 5126,
      "count": 232,
      "max": [
        0.8795357346534729,
        0.99853515625
      ],
      "min": [
        0,
        0
      ],
      "type": "VEC2"
    },
    {
      "bufferView": 6,
      "componentType": 5123,
      "count": 420,
      "max": [
        231
      ],
      "min": [
        0
      ],
      "type": "SCALAR"
    },
    {
      "bufferView": 7,
      "componentType": 5126,
      "count": 90,
      "max": [
        0.43333351612091064,
        0.04000169411301613,
        0.9599988460540771
      ],
      "min": [
        -0.4338647127151489,
        -0.039998628199100494,
        -1.0400011539459229
      ],
      "type": "VEC3"
    },
    {
      "bufferView": 8,
      "componentType": 5126,
      "count": 90,
      "max": [
        1,
        1,
        1
      ],
      "min": [
        -1,
        -1,
        -1
      ],
      "type": "VEC3"
    },
    {
      "bufferView": 9,
      "componentType": 5123,
      "count": 141,
      "max": [
        89
      ],
      "min": [
        0
      ],
      "type": "SCALAR"
    },
    {
      "bufferView": 10,
      "componentType": 5126,
      "count": 48,
      "max": [
        0.5833335518836975,
        0.07500136643648148,
        1.75
      ],
      "min": [
        -0.5833335518836975,
        -0.0749986320734024,
        -1.7500011920928955
      ],
      "type": "VEC3"
    },
    {
      "bufferView": 11,
      "componentType": 5126,
      "count": 48,
      "max": [
        1,
        1,
        1
      ],
      "min": [
        -1,
        -1,
        -1
      ],
      "type": "VEC3"
    },
    {
      "bufferView": 12,
      "componentType": 5126,
      "count": 48,
      "max": [
        0.99853515625,
        0.9891012907028198
      ],
      "min": [
        0,
        0
      ],
      "type": "VEC2"
    },
    {
      "bufferView": 13,
      "componentType": 5123,
      "count": 96,
      "max": [
        47
      ],
      "min": [
        0
      ],
      "type": "SCALAR"
    }
  ],
  "materials": [
    {
      "pbrMetallicRoughness": {
        "baseColorFactor": [
          0.5764705882352941,
          0.5568627450980392,
          0.7372549019607844,
          1
        ],
        "metallicFactor": 0,
        "roughnessFactor": 1
      },
      "doubleSided": true,
      "name": "brass"
    },
    {
      "pbrMetallicRoughness": {
        "baseColorFactor": [
          0.9803921568627451,
          0.9803921568627451,
          0.9803921568627451,
          1
        ],
        "metallicFactor": 0,
        "roughnessFactor": 1
      },
      "doubleSided": true,
      "name": "plywood"
    },
    {
      "pbrMetallicRoughness": {
        "baseColorFactor": [
          0.8,
          0.8,
          0.8,
          1
        ],
        "metallicFactor": 0,
        "roughnessFactor": 1
      },
      "doubleSided": true,
      "name": "clt"
    },
    {
      "pbrMetallicRoughness": {
        "baseColorFactor": [
          0.8941176470588236,
          0.8274509803921568,
          0.7098039215686275,
          1
        ],
        "metallicFactor": 0,
        "roughnessFactor": 1
      },
      "doubleSided": true,
      "name": "obs"
    }
  ],
  "meshes": [
    {
      "primitives": [
        {
          "mode": 4,
          "attributes": {
            "POSITION": 0,
            "NORMAL": 1
          },
          "indices": 2,
          "material": 0
        }
      ]
    },
    {
      "primitives": [
        {
          "mode": 4,
          "attributes": {
            "POSITION": 3,
            "NORMAL": 4,
            "TEXCOORD_0": 5
          },
          "indices": 6,
          "material": 1
        }
      ]
    },
    {
      "primitives": [
        {
          "mode": 4,
          "attributes": {
            "POSITION": 7,
            "NORMAL": 8
          },
          "indices": 9,
          "material": 2
        }
      ]
    },
    {
      "primitives": [
        {
          "mode": 4,
          "attributes": {
            "POSITION": 10,
            "NORMAL": 11,
            "TEXCOORD_0": 12
          },
          "indices": 13,
          "material": 3
        }
      ]
    }
  ]
}