{
  "asset": {
    "version": "2.0",
    "generator": "THREE.GLTFExporter"
  },
  "scenes": [
    {
      "name": "Scene",
      "nodes": [
        1
      ]
    }
  ],
  "scene": 0,
  "nodes": [
    {
      "name": "SIP",
      "extras": {
        "attributes": {
          "mode": {
            "name": "ObjectMode_Normal",
            "value": 0
          },
          "isInstanceDefinitionObject": false,
          "visible": true,
          "name": "SIP",
          "castsShadows": true,
          "receivesShadows": true,
          "linetypeSource": {
            "name": "ObjectLinetypeSource_LinetypeFromLayer",
            "value": 0
          },
          "colorSource": {
            "name": "ObjectColorSource_ColorFromLayer",
            "value": 0
          },
          "plotColorSource": {
            "name": "ObjectPlotColorSource_PlotColorFromLayer",
            "value": 0
          },
          "plotWeightSource": {
            "name": "ObjectPlotWeightSource_PlotWeightFromLayer",
            "value": 0
          },
          "id": "4da74a4c-426b-4034-acec-eed46f80fe79",
          "url": "",
          "layerIndex": 0,
          "materialIndex": -1,
          "materialSource": {
            "name": "ObjectMaterialSource_MaterialFromLayer",
            "value": 0
          },
          "objectColor": {
            "r": 0,
            "g": 0,
            "b": 0,
            "a": 255
          },
          "plotColor": {
            "r": 0,
            "g": 0,
            "b": 0,
            "a": 255
          },
          "displayOrder": 0,
          "plotWeight": 0,
          "objectDecoration": {
            "name": "ObjectDecoration_None",
            "value": 0
          },
          "wireDensity": 1,
          "viewportId": "00000000-0000-0000-0000-000000000000",
          "activeSpace": {
            "name": "ActiveSpace_ModelSpace",
            "value": 1
          },
          "groupCount": 0,
          "isValid": true,
          "userStringCount": 0,
          "geometry": {
            "isSolid": true,
            "isManifold": true,
            "isSurface": false,
            "objectType": {
              "name": "ObjectType_Brep",
              "value": 16
            },
            "isDeformable": false,
            "hasBrepForm": true,
            "isValid": true,
            "userStringCount": 0
          },
          "drawColor": {
            "r": 0,
            "g": 0,
            "b": 0,
            "a": 255
          }
        },
        "objectType": "Brep"
      },
      "mesh": 0
    },
    {
      "name": "Wall",
      "extras": {
        "layers": [
          {
            "name": "SIP",
            "fullPath": "SIP",
            "id": "cbbf6803-d9ac-43b7-ba80-c7c24a25c76b",
            "parentLayerId": "00000000-0000-0000-0000-000000000000",
            "igesLevel": -1,
            "color": {
              "r": 0,
              "g": 0,
              "b": 0,
              "a": 255
            },
            "plotColor": {
              "r": 0,
              "g": 0,
              "b": 0,
              "a": 255
            },
            "plotWeight": 0,
            "linetypeIndex": -1,
            "renderMaterialIndex": -1,
            "visible": true,
            "locked": false,
            "expanded": true,
            "isValid": true,
            "userStringCount": 0
          },
          {
            "name": "toDelete",
            "fullPath": "toDelete",
            "id": "4133bbf8-a1bc-4636-b0af-2970edc2ef9c",
            "parentLayerId": "00000000-0000-0000-0000-000000000000",
            "igesLevel": -1,
            "color": {
              "r": 255,
              "g": 0,
              "b": 0,
              "a": 255
            },
            "plotColor": {
              "r": 255,
              "g": 0,
              "b": 0,
              "a": 255
            },
            "plotWeight": 0,
            "linetypeIndex": -1,
            "renderMaterialIndex": -1,
            "visible": true,
            "locked": false,
            "expanded": true,
            "isValid": true,
            "userStringCount": 0
          }
        ],
        "groups": [],
        "settings": {
          "modelUrl": "",
          "modelBasePoint": [
            0,
            0,
            0
          ],
          "earthAnchorPoint": {},
          "modelAbsoluteTolerance": 0.001,
          "modelAngleToleranceRadians": 0.017453292519943295,
          "modelAngleToleranceDegrees": 1,
          "modelRelativeTolerance": 0.01,
          "pageAbsoluteTolerance": 0.001,
          "pageAngleToleranceRadians": 0.017453292519943295,
          "pageAngleToleranceDegrees": 1,
          "pageRelativeTolerance": 0.01,
          "modelUnitSystem": {
            "name": "UnitSystem_Meters",
            "value": 4
          },
          "pageUnitSystem": {
            "name": "UnitSystem_Millimeters",
            "value": 2
          }
        },
        "objectType": "File3dm",
        "materials": [
          {
            "metadata": {
              "version": 4.5,
              "type": "Material",
              "generator": "Material.toJSON"
            },
            "uuid": "F1F8B19E-EA3C-4518-9D49-7E685C49EEDE",
            "type": "LineBasicMaterial",
            "color": 16711680,
            "depthFunc": 3,
            "depthTest": true,
            "depthWrite": true,
            "colorWrite": true,
            "stencilWrite": false,
            "stencilWriteMask": 255,
            "stencilFunc": 519,
            "stencilRef": 0,
            "stencilFuncMask": 255,
            "stencilFail": 7680,
            "stencilZFail": 7680,
            "stencilZPass": 7680
          }
        ],
        "warnings": [
          {
            "message": "THREE.3DMLoader: Conversion not implemented for ObjectType_Annotation",
            "type": "not implemented",
            "guid": "8754d6e7-c5ad-4198-82e1-d962b46cae48"
          },
          {
            "message": "THREE.3DMLoader: ObjectType_Annotation has no associated mesh geometry.",
            "type": "missing mesh",
            "guid": "8754d6e7-c5ad-4198-82e1-d962b46cae48"
          },
          {
            "message": "THREE.3DMLoader: Conversion not implemented for ObjectType_Annotation",
            "type": "not implemented",
            "guid": "90630b5f-5e50-4e06-83c9-e9af285bb51f"
          },
          {
            "message": "THREE.3DMLoader: ObjectType_Annotation has no associated mesh geometry.",
            "type": "missing mesh",
            "guid": "90630b5f-5e50-4e06-83c9-e9af285bb51f"
          },
          {
            "message": "THREE.3DMLoader: Conversion not implemented for ObjectType_Annotation",
            "type": "not implemented",
            "guid": "d4316fd0-d0e2-4bb8-8c24-b1b0d0d669a7"
          },
          {
            "message": "THREE.3DMLoader: ObjectType_Annotation has no associated mesh geometry.",
            "type": "missing mesh",
            "guid": "d4316fd0-d0e2-4bb8-8c24-b1b0d0d669a7"
          },
          {
            "message": "THREE.3DMLoader: Conversion not implemented for ObjectType_Annotation",
            "type": "not implemented",
            "guid": "eebd2fe0-859c-410a-9849-127faca9172a"
          },
          {
            "message": "THREE.3DMLoader: ObjectType_Annotation has no associated mesh geometry.",
            "type": "missing mesh",
            "guid": "eebd2fe0-859c-410a-9849-127faca9172a"
          }
        ]
      },
      "children": [
        0
      ]
    }
  ],
  "bufferViews": [
    {
      "buffer": 0,
      "byteOffset": 0,
      "byteLength": 288,
      "target": 34962,
      "byteStride": 12
    },
    {
      "buffer": 0,
      "byteOffset": 288,
      "byteLength": 288,
      "target": 34962,
      "byteStride": 12
    },
    {
      "buffer": 0,
      "byteOffset": 576,
      "byteLength": 192,
      "target": 34962,
      "byteStride": 8
    },
    {
      "buffer": 0,
      "byteOffset": 768,
      "byteLength": 72,
      "target": 34963
    }
  ],
  "buffers": [
    {
      "byteLength": 840,
      "uri": "data:application/octet-stream;base64,"
    }
  ],
  "accessors": [
    {
      "bufferView": 0,
      "componentType": 5126,
      "count": 24,
      "max": [
        1.7500005960464478,
        0.07500136643648148,
        1.75
      ],
      "min": [
        -1.7500005960464478,
        -0.07499862462282181,
        -1.750001072883606
      ],
      "type": "VEC3"
    },
    {
      "bufferView": 1,
      "componentType": 5126,
      "count": 24,
      "max": [
        1,
        1,
        1
      ],
      "min": [
        -1,
        -1,
        -1
      ],
      "type": "VEC3"
    },
    {
      "bufferView": 2,
      "componentType": 5126,
      "count": 24,
      "max": [
        0.5985351800918579,
        0.99853515625
      ],
      "min": [
        0,
        0
      ],
      "type": "VEC2"
    },
    {
      "bufferView": 3,
      "componentType": 5123,
      "count": 36,
      "max": [
        23
      ],
      "min": [
        0
      ],
      "type": "SCALAR"
    }
  ],
  "materials": [
    {
      "pbrMetallicRoughness": {
        "metallicFactor": 0.8,
        "roughnessFactor": 1
      },
      "doubleSided": true,
      "name": "default"
    }
  ],
  "meshes": [
    {
      "primitives": [
        {
          "mode": 4,
          "attributes": {
            "POSITION": 0,
            "NORMAL": 1,
            "TEXCOORD_0": 2
          },
          "indices": 3,
          "material": 0
        }
      ]
    }
  ]
}