{
  "asset": {
    "version": "2.0",
    "generator": "THREE.GLTFExporter"
  },
  "scenes": [
    {
      "name": "Scene",
      "nodes": [
        4
      ]
    }
  ],
  "scene": 0,
  "nodes": [
    {
      "name": "attribute_line",
      "extras": {
        "attributes": {
          "mode": {
            "name": "ObjectMode_Normal",
            "value": 0
          },
          "isInstanceDefinitionObject": false,
          "visible": true,
          "name": "attribute_line",
          "castsShadows": true,
          "receivesShadows": true,
          "linetypeSource": {
            "name": "ObjectLinetypeSource_LinetypeFromLayer",
            "value": 0
          },
          "colorSource": {
            "name": "ObjectColorSource_ColorFromLayer",
            "value": 0
          },
          "plotColorSource": {
            "name": "ObjectPlotColorSource_PlotColorFromLayer",
            "value": 0
          },
          "plotWeightSource": {
            "name": "ObjectPlotWeightSource_PlotWeightFromLayer",
            "value": 0
          },
          "id": "9511bd32-eacd-4734-a634-42f1b72b8fb9",
          "url": "",
          "layerIndex": 0,
          "materialIndex": -1,
          "materialSource": {
            "name": "ObjectMaterialSource_MaterialFromLayer",
            "value": 0
          },
          "objectColor": {
            "r": 0,
            "g": 0,
            "b": 0,
            "a": 255
          },
          "plotColor": {
            "r": 0,
            "g": 0,
            "b": 0,
            "a": 255
          },
          "displayOrder": 0,
          "plotWeight": 0,
          "objectDecoration": {
            "name": "ObjectDecoration_None",
            "value": 0
          },
          "wireDensity": 1,
          "viewportId": "00000000-0000-0000-0000-000000000000",
          "activeSpace": {
            "name": "ActiveSpace_ModelSpace",
            "value": 1
          },
          "groupCount": 0,
          "isValid": true,
          "userStringCount": 0,
          "geometry": {
            "line": {},
            "domain": [
              0,
              3.5000011404454483
            ],
            "dimension": 3,
            "spanCount": 1,
            "degree": 1,
            "isClosed": false,
            "isPeriodic": false,
            "pointAtStart": [
              -1.7500005702227241,
              0,
              -1.7500011499491017
            ],
            "pointAtEnd": [
              1.7500005702227241,
              0,
              -1.7500011499491017
            ],
            "tangentAtStart": [
              1,
              0,
              0
            ],
            "tangentAtEnd": [
              1,
              0,
              0
            ],
            "objectType": {
              "name": "ObjectType_Curve",
              "value": 4
            },
            "isDeformable": true,
            "hasBrepForm": false,
            "isValid": true,
            "userStringCount": 0
          },
          "drawColor": {
            "r": 0,
            "g": 0,
            "b": 0,
            "a": 255
          }
        },
        "objectType": "Curve"
      },
      "mesh": 0
    },
    {
      "name": "attribute_line",
      "extras": {
        "attributes": {
          "mode": {
            "name": "ObjectMode_Normal",
            "value": 0
          },
          "isInstanceDefinitionObject": false,
          "visible": true,
          "name": "attribute_line",
          "castsShadows": true,
          "receivesShadows": true,
          "linetypeSource": {
            "name": "ObjectLinetypeSource_LinetypeFromLayer",
            "value": 0
          },
          "colorSource": {
            "name": "ObjectColorSource_ColorFromLayer",
            "value": 0
          },
          "plotColorSource": {
            "name": "ObjectPlotColorSource_PlotColorFromLayer",
            "value": 0
          },
          "plotWeightSource": {
            "name": "ObjectPlotWeightSource_PlotWeightFromLayer",
            "value": 0
          },
          "id": "329b4c3f-05d2-4e47-91f1-410ff191bee0",
          "url": "",
          "layerIndex": 0,
          "materialIndex": -1,
          "materialSource": {
            "name": "ObjectMaterialSource_MaterialFromLayer",
            "value": 0
          },
          "objectColor": {
            "r": 0,
            "g": 0,
            "b": 0,
            "a": 255
          },
          "plotColor": {
            "r": 0,
            "g": 0,
            "b": 0,
            "a": 255
          },
          "displayOrder": 0,
          "plotWeight": 0,
          "objectDecoration": {
            "name": "ObjectDecoration_None",
            "value": 0
          },
          "wireDensity": 1,
          "viewportId": "00000000-0000-0000-0000-000000000000",
          "activeSpace": {
            "name": "ActiveSpace_ModelSpace",
            "value": 1
          },
          "groupCount": 0,
          "isValid": true,
          "userStringCount": 0,
          "geometry": {
            "line": {},
            "domain": [
              3.5000011404454483,
              7.0000022903945505
            ],
            "dimension": 3,
            "spanCount": 1,
            "degree": 1,
            "isClosed": false,
            "isPeriodic": false,
            "pointAtStart": [
              1.7500005702227241,
              0,
              -1.7500011499491017
            ],
            "pointAtEnd": [
              1.7500005702227241,
              0,
              1.7500000000000007
            ],
            "tangentAtStart": [
              0,
              0,
              1
            ],
            "tangentAtEnd": [
              0,
              0,
              1
            ],
            "objectType": {
              "name": "ObjectType_Curve",
              "value": 4
            },
            "isDeformable": true,
            "hasBrepForm": false,
            "isValid": true,
            "userStringCount": 0
          },
          "drawColor": {
            "r": 0,
            "g": 0,
            "b": 0,
            "a": 255
          }
        },
        "objectType": "Curve"
      },
      "mesh": 1
    },
    {
      "name": "attribute_line",
      "extras": {
        "attributes": {
          "mode": {
            "name": "ObjectMode_Normal",
            "value": 0
          },
          "isInstanceDefinitionObject": false,
          "visible": true,
          "name": "attribute_line",
          "castsShadows": true,
          "receivesShadows": true,
          "linetypeSource": {
            "name": "ObjectLinetypeSource_LinetypeFromLayer",
            "value": 0
          },
          "colorSource": {
            "name": "ObjectColorSource_ColorFromLayer",
            "value": 0
          },
          "plotColorSource": {
            "name": "ObjectPlotColorSource_PlotColorFromLayer",
            "value": 0
          },
          "plotWeightSource": {
            "name": "ObjectPlotWeightSource_PlotWeightFromLayer",
            "value": 0
          },
          "id": "6e1ea0f9-2f19-4177-a870-5f145896b414",
          "url": "",
          "layerIndex": 0,
          "materialIndex": -1,
          "materialSource": {
            "name": "ObjectMaterialSource_MaterialFromLayer",
            "value": 0
          },
          "objectColor": {
            "r": 0,
            "g": 0,
            "b": 0,
            "a": 255
          },
          "plotColor": {
            "r": 0,
            "g": 0,
            "b": 0,
            "a": 255
          },
          "displayOrder": 0,
          "plotWeight": 0,
          "objectDecoration": {
            "name": "ObjectDecoration_None",
            "value": 0
          },
          "wireDensity": 1,
          "viewportId": "00000000-0000-0000-0000-000000000000",
          "activeSpace": {
            "name": "ActiveSpace_ModelSpace",
            "value": 1
          },
          "groupCount": 0,
          "isValid": true,
          "userStringCount": 0,
          "geometry": {
            "line": {},
            "domain": [
              7.0000022903945505,
              10.50000343084
            ],
            "dimension": 3,
            "spanCount": 1,
            "degree": 1,
            "isClosed": false,
            "isPeriodic": false,
            "pointAtStart": [
              1.7500005702227241,
              0,
              1.7500000000000007
            ],
            "pointAtEnd": [
              -1.7500005702227241,
              0,
              1.7500000000000007
            ],
            "tangentAtStart": [
              -1,
              0,
              0
            ],
            "tangentAtEnd": [
              -1,
              0,
              0
            ],
            "objectType": {
              "name": "ObjectType_Curve",
              "value": 4
            },
            "isDeformable": true,
            "hasBrepForm": false,
            "isValid": true,
            "userStringCount": 0
          },
          "drawColor": {
            "r": 0,
            "g": 0,
            "b": 0,
            "a": 255
          }
        },
        "objectType": "Curve"
      },
      "mesh": 2
    },
    {
      "name": "attribute_line",
      "extras": {
        "attributes": {
          "mode": {
            "name": "ObjectMode_Normal",
            "value": 0
          },
          "isInstanceDefinitionObject": false,
          "visible": true,
          "name": "attribute_line",
          "castsShadows": true,
          "receivesShadows": true,
          "linetypeSource": {
            "name": "ObjectLinetypeSource_LinetypeFromLayer",
            "value": 0
          },
          "colorSource": {
            "name": "ObjectColorSource_ColorFromLayer",
            "value": 0
          },
          "plotColorSource": {
            "name": "ObjectPlotColorSource_PlotColorFromLayer",
            "value": 0
          },
          "plotWeightSource": {
            "name": "ObjectPlotWeightSource_PlotWeightFromLayer",
            "value": 0
          },
          "id": "86252380-2ef8-40a6-a113-19f9e0b0993e",
          "url": "",
          "layerIndex": 0,
          "materialIndex": -1,
          "materialSource": {
            "name": "ObjectMaterialSource_MaterialFromLayer",
            "value": 0
          },
          "objectColor": {
            "r": 0,
            "g": 0,
            "b": 0,
            "a": 255
          },
          "plotColor": {
            "r": 0,
            "g": 0,
            "b": 0,
            "a": 255
          },
          "displayOrder": 0,
          "plotWeight": 0,
          "objectDecoration": {
            "name": "ObjectDecoration_None",
            "value": 0
          },
          "wireDensity": 1,
          "viewportId": "00000000-0000-0000-0000-000000000000",
          "activeSpace": {
            "name": "ActiveSpace_ModelSpace",
            "value": 1
          },
          "groupCount": 0,
          "isValid": true,
          "userStringCount": 0,
          "geometry": {
            "line": {},
            "domain": [
              10.50000343084,
              14.000004580789103
            ],
            "dimension": 3,
            "spanCount": 1,
            "degree": 1,
            "isClosed": false,
            "isPeriodic": false,
            "pointAtStart": [
              -1.7500005702227241,
              0,
              1.7500000000000007
            ],
            "pointAtEnd": [
              -1.7500005702227241,
              0,
              -1.7500011499491017
            ],
            "tangentAtStart": [
              0,
              0,
              -1
            ],
            "tangentAtEnd": [
              0,
              0,
              -1
            ],
            "objectType": {
              "name": "ObjectType_Curve",
              "value": 4
            },
            "isDeformable": true,
            "hasBrepForm": false,
            "isValid": true,
            "userStringCount": 0
          },
          "drawColor": {
            "r": 0,
            "g": 0,
            "b": 0,
            "a": 255
          }
        },
        "objectType": "Curve"
      },
      "mesh": 3
    },
    {
      "matrix": [
        1,
        0,
        0,
        0,
        0,
        2.220446049250313e-16,
        1,
        0,
        0,
        -1,
        2.220446049250313e-16,
        0,
        0,
        0,
        0,
        1
      ],
      "extras": {
        "layers": [
          {
            "name": "attribute_line",
            "fullPath": "attribute_line",
            "id": "cbbf6803-d9ac-43b7-ba80-c7c24a25c76b",
            "parentLayerId": "00000000-0000-0000-0000-000000000000",
            "igesLevel": -1,
            "color": {
              "r": 0,
              "g": 0,
              "b": 0,
              "a": 255
            },
            "plotColor": {
              "r": 0,
              "g": 0,
              "b": 0,
              "a": 255
            },
            "plotWeight": 0,
            "linetypeIndex": -1,
            "renderMaterialIndex": -1,
            "visible": true,
            "locked": false,
            "expanded": true,
            "isValid": true,
            "userStringCount": 0
          }
        ],
        "groups": [],
        "settings": {
          "modelUrl": "",
          "modelBasePoint": [
            0,
            0,
            0
          ],
          "earthAnchorPoint": {},
          "modelAbsoluteTolerance": 0.001,
          "modelAngleToleranceRadians": 0.017453292519943295,
          "modelAngleToleranceDegrees": 1,
          "modelRelativeTolerance": 0.01,
          "pageAbsoluteTolerance": 0.001,
          "pageAngleToleranceRadians": 0.017453292519943295,
          "pageAngleToleranceDegrees": 1,
          "pageRelativeTolerance": 0.01,
          "modelUnitSystem": {
            "name": "UnitSystem_Meters",
            "value": 4
          },
          "pageUnitSystem": {
            "name": "UnitSystem_Millimeters",
            "value": 2
          }
        },
        "objectType": "File3dm",
        "materials": [
          {
            "metadata": {
              "version": 4.5,
              "type": "Material",
              "generator": "Material.toJSON"
            },
            "uuid": "08B80915-DA17-4589-8B81-985A64F91761",
            "type": "LineBasicMaterial",
            "color": 0,
            "depthFunc": 3,
            "depthTest": true,
            "depthWrite": true,
            "colorWrite": true,
            "stencilWrite": false,
            "stencilWriteMask": 255,
            "stencilFunc": 519,
            "stencilRef": 0,
            "stencilFuncMask": 255,
            "stencilFail": 7680,
            "stencilZFail": 7680,
            "stencilZPass": 7680
          }
        ],
        "warnings": []
      },
      "children": [
        0,
        1,
        2,
        3
      ]
    }
  ],
  "bufferViews": [
    {
      "buffer": 0,
      "byteOffset": 0,
      "byteLength": 24,
      "target": 34962,
      "byteStride": 12
    },
    {
      "buffer": 0,
      "byteOffset": 24,
      "byteLength": 24,
      "target": 34962,
      "byteStride": 12
    },
    {
      "buffer": 0,
      "byteOffset": 48,
      "byteLength": 24,
      "target": 34962,
      "byteStride": 12
    },
    {
      "buffer": 0,
      "byteOffset": 72,
      "byteLength": 24,
      "target": 34962,
      "byteStride": 12
    }
  ],
  "buffers": [
    {
      "byteLength": 96,
      "uri": "data:application/octet-stream;base64,"
    }
  ],
  "accessors": [
    {
      "bufferView": 0,
      "componentType": 5126,
      "count": 2,
      "max": [
        1.7500005960464478,
        0,
        -1.7500011920928955
      ],
      "min": [
        -1.7500005960464478,
        0,
        -1.7500011920928955
      ],
      "type": "VEC3"
    },
    {
      "bufferView": 1,
      "componentType": 5126,
      "count": 2,
      "max": [
        1.7500005960464478,
        0,
        1.75
      ],
      "min": [
        1.7500005960464478,
        0,
        -1.7500011920928955
      ],
      "type": "VEC3"
    },
    {
      "bufferView": 2,
      "componentType": 5126,
      "count": 2,
      "max": [
        1.7500005960464478,
        0,
        1.75
      ],
      "min": [
        -1.7500005960464478,
        0,
        1.75
      ],
      "type": "VEC3"
    },
    {
      "bufferView": 3,
      "componentType": 5126,
      "count": 2,
      "max": [
        -1.7500005960464478,
        0,
        1.75
      ],
      "min": [
        -1.7500005960464478,
        0,
        -1.7500011920928955
      ],
      "type": "VEC3"
    }
  ],
  "materials": [
    {
      "pbrMetallicRoughness": {
        "baseColorFactor": [
          0,
          0,
          0,
          1
        ],
        "metallicFactor": 0.5,
        "roughnessFactor": 0.5
      }
    }
  ],
  "meshes": [
    {
      "primitives": [
        {
          "mode": 3,
          "attributes": {
            "POSITION": 0
          },
          "material": 0
        }
      ]
    },
    {
      "primitives": [
        {
          "mode": 3,
          "attributes": {
            "POSITION": 1
          },
          "material": 0
        }
      ]
    },
    {
      "primitives": [
        {
          "mode": 3,
          "attributes": {
            "POSITION": 2
          },
          "material": 0
        }
      ]
    },
    {
      "primitives": [
        {
          "mode": 3,
          "attributes": {
            "POSITION": 3
          },
          "material": 0
        }
      ]
    }
  ]
}