{
  "asset": {
    "version": "2.0",
    "generator": "THREE.GLTFExporter"
  },
  "scenes": [
    {
      "name": "Scene",
      "nodes": [
        4
      ]
    }
  ],
  "scene": 0,
  "nodes": [
    {
      "name": "Frame",
      "extras": {
        "attributes": {
          "mode": {
            "name": "ObjectMode_Normal",
            "value": 0
          },
          "isInstanceDefinitionObject": false,
          "visible": true,
          "name": "Frame",
          "castsShadows": true,
          "receivesShadows": true,
          "linetypeSource": {
            "name": "ObjectLinetypeSource_LinetypeFromLayer",
            "value": 0
          },
          "colorSource": {
            "name": "ObjectColorSource_ColorFromLayer",
            "value": 0
          },
          "plotColorSource": {
            "name": "ObjectPlotColorSource_PlotColorFromLayer",
            "value": 0
          },
          "plotWeightSource": {
            "name": "ObjectPlotWeightSource_PlotWeightFromLayer",
            "value": 0
          },
          "id": "79cd8e85-d75e-482a-a04b-500f4c9ee276",
          "url": "",
          "layerIndex": 0,
          "materialIndex": -1,
          "materialSource": {
            "name": "ObjectMaterialSource_MaterialFromLayer",
            "value": 0
          },
          "objectColor": {
            "r": 0,
            "g": 0,
            "b": 0,
            "a": 255
          },
          "plotColor": {
            "r": 0,
            "g": 0,
            "b": 0,
            "a": 255
          },
          "displayOrder": 0,
          "plotWeight": 0,
          "objectDecoration": {
            "name": "ObjectDecoration_None",
            "value": 0
          },
          "wireDensity": 1,
          "viewportId": "00000000-0000-0000-0000-000000000000",
          "activeSpace": {
            "name": "ActiveSpace_ModelSpace",
            "value": 1
          },
          "groupCount": 0,
          "isValid": true,
          "userStringCount": 0,
          "geometry": {
            "isClosed": true,
            "hasCachedTextureCoordinates": false,
            "hasPrincipalCurvatures": false,
            "partitionCount": 0,
            "objectType": {
              "name": "ObjectType_Mesh",
              "value": 32
            },
            "isDeformable": true,
            "hasBrepForm": false,
            "isValid": true,
            "userStringCount": 0
          },
          "drawColor": {
            "r": 0,
            "g": 0,
            "b": 0,
            "a": 255
          }
        },
        "objectType": "Mesh"
      },
      "mesh": 0
    },
    {
      "name": "Cores",
      "extras": {
        "attributes": {
          "mode": {
            "name": "ObjectMode_Normal",
            "value": 0
          },
          "isInstanceDefinitionObject": false,
          "visible": true,
          "name": "Cores",
          "castsShadows": true,
          "receivesShadows": true,
          "linetypeSource": {
            "name": "ObjectLinetypeSource_LinetypeFromLayer",
            "value": 0
          },
          "colorSource": {
            "name": "ObjectColorSource_ColorFromLayer",
            "value": 0
          },
          "plotColorSource": {
            "name": "ObjectPlotColorSource_PlotColorFromLayer",
            "value": 0
          },
          "plotWeightSource": {
            "name": "ObjectPlotWeightSource_PlotWeightFromLayer",
            "value": 0
          },
          "id": "7ee0df3d-b26f-4a42-b95c-0e98d603bb02",
          "url": "",
          "layerIndex": 0,
          "materialIndex": -1,
          "materialSource": {
            "name": "ObjectMaterialSource_MaterialFromLayer",
            "value": 0
          },
          "objectColor": {
            "r": 0,
            "g": 0,
            "b": 0,
            "a": 255
          },
          "plotColor": {
            "r": 0,
            "g": 0,
            "b": 0,
            "a": 255
          },
          "displayOrder": 0,
          "plotWeight": 0,
          "objectDecoration": {
            "name": "ObjectDecoration_None",
            "value": 0
          },
          "wireDensity": 1,
          "viewportId": "00000000-0000-0000-0000-000000000000",
          "activeSpace": {
            "name": "ActiveSpace_ModelSpace",
            "value": 1
          },
          "groupCount": 0,
          "isValid": true,
          "userStringCount": 0,
          "geometry": {
            "isClosed": true,
            "hasCachedTextureCoordinates": false,
            "hasPrincipalCurvatures": false,
            "partitionCount": 0,
            "objectType": {
              "name": "ObjectType_Mesh",
              "value": 32
            },
            "isDeformable": true,
            "hasBrepForm": false,
            "isValid": true,
            "userStringCount": 0
          },
          "drawColor": {
            "r": 0,
            "g": 0,
            "b": 0,
            "a": 255
          }
        },
        "objectType": "Mesh"
      },
      "mesh": 1
    },
    {
      "name": "Corridors",
      "extras": {
        "attributes": {
          "mode": {
            "name": "ObjectMode_Normal",
            "value": 0
          },
          "isInstanceDefinitionObject": false,
          "visible": true,
          "name": "Corridors",
          "castsShadows": true,
          "receivesShadows": true,
          "linetypeSource": {
            "name": "ObjectLinetypeSource_LinetypeFromLayer",
            "value": 0
          },
          "colorSource": {
            "name": "ObjectColorSource_ColorFromLayer",
            "value": 0
          },
          "plotColorSource": {
            "name": "ObjectPlotColorSource_PlotColorFromLayer",
            "value": 0
          },
          "plotWeightSource": {
            "name": "ObjectPlotWeightSource_PlotWeightFromLayer",
            "value": 0
          },
          "id": "10670a55-295a-44a8-8500-2ead04b55d1e",
          "url": "",
          "layerIndex": 0,
          "materialIndex": -1,
          "materialSource": {
            "name": "ObjectMaterialSource_MaterialFromLayer",
            "value": 0
          },
          "objectColor": {
            "r": 0,
            "g": 0,
            "b": 0,
            "a": 255
          },
          "plotColor": {
            "r": 0,
            "g": 0,
            "b": 0,
            "a": 255
          },
          "displayOrder": 0,
          "plotWeight": 0,
          "objectDecoration": {
            "name": "ObjectDecoration_None",
            "value": 0
          },
          "wireDensity": 1,
          "viewportId": "00000000-0000-0000-0000-000000000000",
          "activeSpace": {
            "name": "ActiveSpace_ModelSpace",
            "value": 1
          },
          "groupCount": 0,
          "isValid": true,
          "userStringCount": 0,
          "geometry": {
            "isClosed": true,
            "hasCachedTextureCoordinates": false,
            "hasPrincipalCurvatures": false,
            "partitionCount": 0,
            "objectType": {
              "name": "ObjectType_Mesh",
              "value": 32
            },
            "isDeformable": true,
            "hasBrepForm": false,
            "isValid": true,
            "userStringCount": 0
          },
          "drawColor": {
            "r": 0,
            "g": 0,
            "b": 0,
            "a": 255
          }
        },
        "objectType": "Mesh"
      },
      "mesh": 2
    },
    {
      "name": "Texts",
      "extras": {
        "attributes": {
          "mode": {
            "name": "ObjectMode_Normal",
            "value": 0
          },
          "isInstanceDefinitionObject": false,
          "visible": true,
          "name": "Texts",
          "castsShadows": true,
          "receivesShadows": true,
          "linetypeSource": {
            "name": "ObjectLinetypeSource_LinetypeFromLayer",
            "value": 0
          },
          "colorSource": {
            "name": "ObjectColorSource_ColorFromLayer",
            "value": 0
          },
          "plotColorSource": {
            "name": "ObjectPlotColorSource_PlotColorFromLayer",
            "value": 0
          },
          "plotWeightSource": {
            "name": "ObjectPlotWeightSource_PlotWeightFromLayer",
            "value": 0
          },
          "id": "0e61306a-3728-41c1-94de-29b4fb98941f",
          "url": "",
          "layerIndex": 1,
          "materialIndex": -1,
          "materialSource": {
            "name": "ObjectMaterialSource_MaterialFromLayer",
            "value": 0
          },
          "objectColor": {
            "r": 0,
            "g": 0,
            "b": 0,
            "a": 255
          },
          "plotColor": {
            "r": 0,
            "g": 0,
            "b": 0,
            "a": 255
          },
          "displayOrder": 0,
          "plotWeight": 0,
          "objectDecoration": {
            "name": "ObjectDecoration_None",
            "value": 0
          },
          "wireDensity": 1,
          "viewportId": "00000000-0000-0000-0000-000000000000",
          "activeSpace": {
            "name": "ActiveSpace_ModelSpace",
            "value": 1
          },
          "groupCount": 0,
          "isValid": true,
          "userStringCount": 0,
          "geometry": {
            "isClosed": false,
            "hasCachedTextureCoordinates": false,
            "hasPrincipalCurvatures": false,
            "partitionCount": 0,
            "objectType": {
              "name": "ObjectType_Mesh",
              "value": 32
            },
            "isDeformable": true,
            "hasBrepForm": false,
            "isValid": true,
            "userStringCount": 0
          },
          "drawColor": {
            "r": 0,
            "g": 0,
            "b": 255,
            "a": 255
          }
        },
        "objectType": "Mesh"
      },
      "mesh": 3
    },
    {
      "name": "Chassis",
      "extras": {
        "layers": [
          {
            "name": "Chassis",
            "fullPath": "Chassis",
            "id": "c02e7deb-a3e5-495e-9386-fb743312c2ce",
            "parentLayerId": "00000000-0000-0000-0000-000000000000",
            "igesLevel": -1,
            "color": {
              "r": 0,
              "g": 0,
              "b": 0,
              "a": 255
            },
            "plotColor": {
              "r": 0,
              "g": 0,
              "b": 0,
              "a": 255
            },
            "plotWeight": 0,
            "linetypeIndex": -1,
            "renderMaterialIndex": -1,
            "visible": true,
            "locked": false,
            "expanded": true,
            "isValid": true,
            "userStringCount": 0
          },
          {
            "name": "MS Ref San Serif 1.0",
            "fullPath": "MS Ref San Serif 1.0",
            "id": "0f4e0c57-e086-43b5-8e67-86eb673721eb",
            "parentLayerId": "00000000-0000-0000-0000-000000000000",
            "igesLevel": -1,
            "color": {
              "r": 0,
              "g": 0,
              "b": 255,
              "a": 255
            },
            "plotColor": {
              "r": 0,
              "g": 0,
              "b": 255,
              "a": 255
            },
            "plotWeight": 0,
            "linetypeIndex": -1,
            "renderMaterialIndex": -1,
            "visible": true,
            "locked": false,
            "expanded": true,
            "isValid": true,
            "userStringCount": 0
          }
        ],
        "groups": [],
        "settings": {
          "modelUrl": "",
          "modelBasePoint": [
            0,
            0,
            0
          ],
          "earthAnchorPoint": {},
          "modelAbsoluteTolerance": 0.001,
          "modelAngleToleranceRadians": 0.017453292519943295,
          "modelAngleToleranceDegrees": 1,
          "modelRelativeTolerance": 0.01,
          "pageAbsoluteTolerance": 0.001,
          "pageAngleToleranceRadians": 0.017453292519943295,
          "pageAngleToleranceDegrees": 1,
          "pageRelativeTolerance": 0.01,
          "modelUnitSystem": {
            "name": "UnitSystem_Meters",
            "value": 4
          },
          "pageUnitSystem": {
            "name": "UnitSystem_Millimeters",
            "value": 2
          }
        },
        "objectType": "File3dm",
        "materials": [],
        "warnings": []
      },
      "children": [
        0,
        1,
        2,
        3
      ]
    }
  ],
  "bufferViews": [
    {
      "buffer": 0,
      "byteOffset": 0,
      "byteLength": 114336,
      "target": 34962,
      "byteStride": 12
    },
    {
      "buffer": 0,
      "byteOffset": 114336,
      "byteLength": 114336,
      "target": 34962,
      "byteStride": 12
    },
    {
      "buffer": 0,
      "byteOffset": 228672,
      "byteLength": 76224,
      "target": 34962,
      "byteStride": 8
    },
    {
      "buffer": 0,
      "byteOffset": 304896,
      "byteLength": 36624,
      "target": 34963
    },
    {
      "buffer": 0,
      "byteOffset": 341520,
      "byteLength": 1152,
      "target": 34962,
      "byteStride": 12
    },
    {
      "buffer": 0,
      "byteOffset": 342672,
      "byteLength": 1152,
      "target": 34962,
      "byteStride": 12
    },
    {
      "buffer": 0,
      "byteOffset": 343824,
      "byteLength": 768,
      "target": 34962,
      "byteStride": 8
    },
    {
      "buffer": 0,
      "byteOffset": 344592,
      "byteLength": 288,
      "target": 34963
    },
    {
      "buffer": 0,
      "byteOffset": 344880,
      "byteLength": 864,
      "target": 34962,
      "byteStride": 12
    },
    {
      "buffer": 0,
      "byteOffset": 345744,
      "byteLength": 864,
      "target": 34962,
      "byteStride": 12
    },
    {
      "buffer": 0,
      "byteOffset": 346608,
      "byteLength": 576,
      "target": 34962,
      "byteStride": 8
    },
    {
      "buffer": 0,
      "byteOffset": 347184,
      "byteLength": 264,
      "target": 34963
    },
    {
      "buffer": 0,
      "byteOffset": 347448,
      "byteLength": 10776,
      "target": 34962,
      "byteStride": 12
    },
    {
      "buffer": 0,
      "byteOffset": 358224,
      "byteLength": 10776,
      "target": 34962,
      "byteStride": 12
    },
    {
      "buffer": 0,
      "byteOffset": 369000,
      "byteLength": 7184,
      "target": 34962,
      "byteStride": 8
    },
    {
      "buffer": 0,
      "byteOffset": 376184,
      "byteLength": 5028,
      "target": 34963
    }
  ],
  "buffers": [
    {
      "byteLength": 381212,
      "uri": "data:application/octet-stream;base64,"
    }
  ],
  "accessors": [
    {
      "bufferView": 0,
      "componentType": 5126,
      "count": 9528,
      "max": [
        42.149993896484375,
        24.669092178344727,
        7.300000190734863
      ],
      "min": [
        -42.15000534057617,
        -7.130908012390137,
        -0.2999998927116394
      ],
      "type": "VEC3"
    },
    {
      "bufferView": 1,
      "componentType": 5126,
      "count": 9528,
      "max": [
        1,
        1,
        1
      ],
      "min": [
        -1,
        -1,
        -1
      ],
      "type": "VEC3"
    },
    {
      "bufferView": 2,
      "componentType": 5126,
      "count": 9528,
      "max": [
        1,
        0.8798166513442993
      ],
      "min": [
        0,
        0
      ],
      "type": "VEC2"
    },
    {
      "bufferView": 3,
      "componentType": 5123,
      "count": 18312,
      "max": [
        9527
      ],
      "min": [
        0
      ],
      "type": "SCALAR"
    },
    {
      "bufferView": 4,
      "componentType": 5126,
      "count": 96,
      "max": [
        28.149993896484375,
        17.68818473815918,
        7.300000190734863
      ],
      "min": [
        -21.150005340576172,
        -0.13090801239013672,
        -0.2999998927116394
      ],
      "type": "VEC3"
    },
    {
      "bufferView": 5,
      "componentType": 5126,
      "count": 96,
      "max": [
        1,
        1,
        1
      ],
      "min": [
        -1,
        -1,
        -1
      ],
      "type": "VEC3"
    },
    {
      "bufferView": 6,
      "componentType": 5126,
      "count": 96,
      "max": [
        1,
        1
      ],
      "min": [
        0,
        0
      ],
      "type": "VEC2"
    },
    {
      "bufferView": 7,
      "componentType": 5123,
      "count": 144,
      "max": [
        95
      ],
      "min": [
        0
      ],
      "type": "SCALAR"
    },
    {
      "bufferView": 8,
      "componentType": 5126,
      "count": 72,
      "max": [
        34.999996185302734,
        17.36909294128418,
        0.3000001013278961
      ],
      "min": [
        -35.000003814697266,
        0.1690920889377594,
        1.043081283569336e-7
      ],
      "type": "VEC3"
    },
    {
      "bufferView": 9,
      "componentType": 5126,
      "count": 72,
      "max": [
        1,
        1,
        1
      ],
      "min": [
        -1,
        -1,
        -1
      ],
      "type": "VEC3"
    },
    {
      "bufferView": 10,
      "componentType": 5126,
      "count": 72,
      "max": [
        0.99853515625,
        0.8012874722480774
      ],
      "min": [
        0,
        0
      ],
      "type": "VEC2"
    },
    {
      "bufferView": 11,
      "componentType": 5123,
      "count": 132,
      "max": [
        71
      ],
      "min": [
        0
      ],
      "type": "SCALAR"
    },
    {
      "bufferView": 12,
      "componentType": 5126,
      "count": 898,
      "max": [
        26.806514739990234,
        17.095701217651367,
        7.310000419616699
      ],
      "min": [
        -19.76601791381836,
        0.4016118347644806,
        0.31000012159347534
      ],
      "type": "VEC3"
    },
    {
      "bufferView": 13,
      "componentType": 5126,
      "count": 898,
      "max": [
        0,
        0,
        1
      ],
      "min": [
        0,
        0,
        1
      ],
      "type": "VEC3"
    },
    {
      "bufferView": 14,
      "componentType": 5126,
      "count": 898,
      "max": [
        1,
        1
      ],
      "min": [
        0,
        0
      ],
      "type": "VEC2"
    },
    {
      "bufferView": 15,
      "componentType": 5123,
      "count": 2514,
      "max": [
        897
      ],
      "min": [
        0
      ],
      "type": "SCALAR"
    }
  ],
  "materials": [
    {
      "pbrMetallicRoughness": {
        "metallicFactor": 0.8,
        "roughnessFactor": 1
      },
      "doubleSided": true,
      "name": "default"
    },
    {
      "pbrMetallicRoughness": {
        "metallicFactor": 0.8,
        "roughnessFactor": 1
      },
      "doubleSided": true,
      "name": "default"
    },
    {
      "pbrMetallicRoughness": {
        "metallicFactor": 0.8,
        "roughnessFactor": 1
      },
      "doubleSided": true,
      "name": "default"
    },
    {
      "pbrMetallicRoughness": {
        "metallicFactor": 0.8,
        "roughnessFactor": 1
      },
      "doubleSided": true,
      "name": "default"
    }
  ],
  "meshes": [
    {
      "primitives": [
        {
          "mode": 4,
          "attributes": {
            "POSITION": 0,
            "NORMAL": 1,
            "TEXCOORD_0": 2
          },
          "indices": 3,
          "material": 0
        }
      ]
    },
    {
      "primitives": [
        {
          "mode": 4,
          "attributes": {
            "POSITION": 4,
            "NORMAL": 5,
            "TEXCOORD_0": 6
          },
          "indices": 7,
          "material": 1
        }
      ]
    },
    {
      "primitives": [
        {
          "mode": 4,
          "attributes": {
            "POSITION": 8,
            "NORMAL": 9,
            "TEXCOORD_0": 10
          },
          "indices": 11,
          "material": 2
        }
      ]
    },
    {
      "primitives": [
        {
          "mode": 4,
          "attributes": {
            "POSITION": 12,
            "NORMAL": 13,
            "TEXCOORD_0": 14
          },
          "indices": 15,
          "material": 3
        }
      ]
    }
  ]
}